<svg width="32" height="32" viewBox="0 0 32 32" fill="none" xmlns="http://www.w3.org/2000/svg">
<path d="M29.8904 13.0965C30.254 12.0193 30.3801 10.8779 30.2603 9.74872C30.1406 8.61953 29.7777 7.52861 29.1961 6.54898C28.3339 5.06723 27.0168 3.89408 25.435 3.1988C23.8532 2.50352 22.0885 2.32207 20.3954 2.68062C19.6317 1.83144 18.693 1.153 17.642 0.690731C16.5911 0.22846 15.4523 -0.00698472 14.3017 0.000157773C12.5706 -0.00396462 10.8829 0.534428 9.48197 1.53771C8.08102 2.54099 7.03917 3.95733 6.50662 5.58252C5.37892 5.81028 4.31355 6.27312 3.38183 6.94004C2.4501 7.60696 1.67351 8.46257 1.10406 9.44961C0.234949 10.9273 -0.136036 12.6391 0.0446029 14.3382C0.225242 16.0373 0.94817 17.6359 2.10912 18.9035C1.74561 19.9807 1.61951 21.1221 1.73926 22.2513C1.859 23.3805 2.22183 24.4714 2.80347 25.451C3.66577 26.9327 4.98281 28.1058 6.56459 28.8011C8.14638 29.4963 9.91111 29.6778 11.6042 29.3194C12.3679 30.1686 13.3066 30.847 14.3575 31.3093C15.4084 31.7715 16.5473 32.007 17.6979 31.9998C19.4298 32.0043 21.1184 31.4657 22.5199 30.4618C23.9214 29.4578 24.9634 28.0405 25.4955 26.4143C26.6232 26.1866 27.6886 25.7237 28.6203 25.0568C29.552 24.3899 30.3286 23.5343 30.8981 22.5472C31.7661 21.0697 32.1362 19.3583 31.9551 17.6599C31.7741 15.9614 31.0511 14.3635 29.8904 13.0965V13.0965ZM17.7005 29.908C16.2788 29.9099 14.9017 29.4186 13.81 28.5201C13.8592 28.4936 13.9455 28.4469 14.0018 28.4128L20.4593 24.7325C20.6214 24.6415 20.756 24.5096 20.8492 24.3502C20.9425 24.1909 20.9911 24.01 20.99 23.826V14.8433L23.7194 16.3984C23.7337 16.4054 23.746 16.4158 23.7553 16.4287C23.7645 16.4416 23.7704 16.4565 23.7724 16.4722V23.9111C23.7704 25.5 23.1302 27.0233 21.9921 28.1473C20.854 29.2713 19.3108 29.9045 17.7005 29.908V29.908ZM4.64225 24.4051C3.93014 23.191 3.67348 21.7685 3.91722 20.3866C3.96518 20.415 4.04893 20.4654 4.10903 20.4995L10.5665 24.1799C10.7275 24.2727 10.9105 24.3216 11.0969 24.3216C11.2833 24.3216 11.4663 24.2727 11.6272 24.1799L19.5111 19.6882V22.7983C19.512 22.8142 19.5089 22.83 19.5021 22.8445C19.4953 22.8589 19.485 22.8714 19.4721 22.881L12.9443 26.5998C11.548 27.3933 9.88973 27.6078 8.33332 27.1963C6.7769 26.7849 5.44946 25.7811 4.64225 24.4051V24.4051ZM2.94348 10.4955C3.65252 9.27988 4.77241 8.34908 6.10702 7.86618C6.10702 7.92107 6.10382 8.01822 6.10382 8.08572V15.4464C6.10269 15.6303 6.1512 15.8111 6.24435 15.9703C6.3375 16.1295 6.47194 16.2614 6.63385 16.3523L14.5178 20.8433L11.7883 22.3984C11.7749 22.4071 11.7594 22.4124 11.7434 22.4139C11.7273 22.4153 11.7111 22.4128 11.6963 22.4066L5.16781 18.6846C3.77396 17.8881 2.75708 16.5788 2.34011 15.0437C1.92314 13.5086 2.14013 11.873 2.94348 10.4955V10.4955ZM25.3683 15.6445L17.4844 11.1529L20.2138 9.59849C20.2273 9.58974 20.2427 9.58441 20.2588 9.58298C20.2748 9.58155 20.291 9.58406 20.3059 9.59029L26.8343 13.3091C27.8345 13.8792 28.6494 14.7186 29.1835 15.729C29.7177 16.7395 29.9491 17.8792 29.8505 19.0147C29.752 20.1502 29.3276 21.2346 28.6271 22.1407C27.9266 23.0469 26.9789 23.7373 25.8951 24.1313C25.8951 24.0758 25.8951 23.9786 25.8951 23.9111V16.5504C25.8966 16.3669 25.8486 16.1863 25.7561 16.0271C25.6635 15.8679 25.5296 15.7358 25.3683 15.6445V15.6445ZM28.0849 11.6103C28.037 11.5812 27.9532 11.5314 27.8931 11.4973L21.4356 7.81698C21.2746 7.72431 21.0916 7.67548 20.9052 7.67548C20.7189 7.67548 20.5359 7.72431 20.3749 7.81698L12.491 12.3086V9.19853C12.4901 9.18265 12.4932 9.1668 12.5 9.15238C12.5068 9.13796 12.5171 9.12543 12.53 9.11589L19.0578 5.4002C20.0579 4.83122 21.2015 4.555 22.3548 4.60386C23.5082 4.65271 24.6236 5.02461 25.5705 5.67606C26.5175 6.32751 27.2568 7.23156 27.7021 8.28246C28.1474 9.33335 28.2802 10.4876 28.0849 11.6103ZM11.0071 17.1535L8.277 15.5985C8.26268 15.5914 8.25034 15.581 8.24108 15.5681C8.23183 15.5553 8.22593 15.5403 8.22393 15.5247V8.08572C8.22468 6.94636 8.55433 5.83078 9.17431 4.86957C9.79429 3.90835 10.6789 3.14127 11.7247 2.65811C12.7705 2.17495 13.9341 1.99571 15.0793 2.14136C16.2246 2.28701 17.3041 2.75153 18.1915 3.48054C18.1423 3.50703 18.0566 3.55372 17.9997 3.58778L11.5422 7.26814C11.3802 7.35902 11.2456 7.49085 11.1523 7.65007C11.0591 7.80928 11.0105 7.99014 11.0115 8.17404L11.0071 17.1535ZM12.4897 13.9993L16.0011 11.9982L19.5124 13.998V17.9988L16.0011 19.9986L12.4897 17.9988V13.9993Z" fill="currentColor"/>
</svg>
