<svg width="24" height="24" viewBox="0 0 24 24" fill="none" xmlns="http://www.w3.org/2000/svg">
<rect width="24" height="24" rx="12" fill="#0051D2"/>
<g clip-path="url(#clip0_427_333)">
<path d="M19.7287 10.3634C19.931 9.7559 20.0011 9.1122 19.9345 8.47538C19.8679 7.83857 19.666 7.22334 19.3423 6.67087C18.8625 5.83523 18.1297 5.17363 17.2495 4.78152C16.3693 4.38942 15.3873 4.28708 14.4452 4.48929C14.0202 4.01039 13.4979 3.62778 12.9131 3.36708C12.3283 3.10638 11.6946 2.9736 11.0543 2.97763C10.0911 2.9753 9.15198 3.27893 8.37243 3.84474C7.59287 4.41055 7.01313 5.2093 6.71679 6.12583C6.08929 6.25428 5.49646 6.5153 4.97801 6.89141C4.45955 7.26752 4.02742 7.75005 3.71054 8.3067C3.22693 9.14002 3.02049 10.1054 3.12101 11.0636C3.22153 12.0219 3.6238 12.9234 4.26981 13.6383C4.06754 14.2458 3.99737 14.8895 4.064 15.5263C4.13063 16.1631 4.33253 16.7783 4.65618 17.3308C5.136 18.1664 5.86887 18.828 6.74905 19.2201C7.62923 19.6122 8.61122 19.7145 9.55334 19.5124C9.97829 19.9913 10.5006 20.3739 11.0854 20.6346C11.6702 20.8953 12.3039 21.0281 12.9442 21.024C13.9079 21.0265 14.8475 20.7228 15.6273 20.1566C16.4072 19.5904 16.987 18.7911 17.2831 17.874C17.9106 17.7456 18.5035 17.4846 19.0219 17.1085C19.5404 16.7323 19.9725 16.2498 20.2894 15.6932C20.7724 14.8599 20.9784 13.8948 20.8776 12.9369C20.7768 11.9791 20.3745 11.0779 19.7287 10.3634V10.3634ZM12.9456 19.8443C12.1545 19.8454 11.3882 19.5683 10.7807 19.0616C10.8081 19.0467 10.8562 19.0203 10.8875 19.0011L14.4807 16.9256C14.5709 16.8743 14.6458 16.7998 14.6977 16.71C14.7496 16.6201 14.7767 16.5181 14.776 16.4143V11.3485L16.2948 12.2255C16.3028 12.2295 16.3096 12.2353 16.3148 12.2426C16.3199 12.2499 16.3232 12.2583 16.3243 12.2671V16.4623C16.3232 17.3584 15.967 18.2175 15.3337 18.8514C14.7004 19.4853 13.8416 19.8423 12.9456 19.8443V19.8443ZM5.67937 16.7409C5.28311 16.0563 5.1403 15.254 5.27593 14.4747C5.30261 14.4907 5.34922 14.5191 5.38266 14.5384L8.97593 16.6139C9.06547 16.6662 9.16732 16.6938 9.27104 16.6938C9.37475 16.6938 9.4766 16.6662 9.56615 16.6139L13.9531 14.0808V15.8348C13.9536 15.8437 13.9519 15.8527 13.9481 15.8608C13.9444 15.8689 13.9386 15.876 13.9314 15.8814L10.299 17.9786C9.52207 18.4261 8.59932 18.5471 7.73326 18.3151C6.86719 18.083 6.12854 17.5169 5.67937 16.7409V16.7409ZM4.73409 8.89656C5.12863 8.21098 5.75179 7.68605 6.49444 7.41371C6.49444 7.44467 6.49266 7.49946 6.49266 7.53752V11.6886C6.49203 11.7923 6.51902 11.8943 6.57085 11.9841C6.62269 12.0739 6.6975 12.1482 6.78759 12.1995L11.1746 14.7322L9.6558 15.6092C9.64831 15.6142 9.63971 15.6172 9.63077 15.618C9.62183 15.6188 9.61283 15.6174 9.60457 15.6138L5.97181 13.5148C5.19621 13.0656 4.63036 12.3272 4.39834 11.4615C4.16632 10.5958 4.28706 9.6734 4.73409 8.89656V8.89656ZM17.2123 11.8004L12.8254 9.26727L14.3441 8.39066C14.3516 8.38572 14.3602 8.38272 14.3692 8.38191C14.3781 8.3811 14.3871 8.38252 14.3954 8.38603L18.0281 10.4833C18.5847 10.8048 19.0381 11.2782 19.3353 11.848C19.6326 12.4179 19.7613 13.0606 19.7065 13.701C19.6517 14.3414 19.4155 14.9529 19.0257 15.4639C18.6359 15.9749 18.1086 16.3643 17.5055 16.5865C17.5055 16.5552 17.5055 16.5004 17.5055 16.4623V12.3112C17.5063 12.2077 17.4796 12.1059 17.4281 12.0161C17.3766 11.9263 17.3021 11.8518 17.2123 11.8004V11.8004ZM18.724 9.52521C18.6973 9.50884 18.6507 9.48073 18.6173 9.46152L15.024 7.38596C14.9344 7.33371 14.8326 7.30617 14.7289 7.30617C14.6252 7.30617 14.5234 7.33371 14.4338 7.38596L10.0468 9.91904V8.1651C10.0463 8.15614 10.048 8.1472 10.0518 8.13907C10.0556 8.13094 10.0613 8.12387 10.0685 8.11849L13.7009 6.02301C14.2574 5.70213 14.8937 5.54636 15.5355 5.57391C16.1773 5.60146 16.7979 5.8112 17.3249 6.17859C17.8518 6.54597 18.2632 7.05582 18.511 7.64848C18.7588 8.24113 18.8327 8.8921 18.724 9.52521ZM9.22105 12.6513L7.70192 11.7744C7.69395 11.7704 7.68708 11.7645 7.68193 11.7573C7.67678 11.75 7.6735 11.7416 7.67239 11.7328V7.53752C7.6728 6.89498 7.85624 6.26584 8.20123 5.72376C8.54621 5.18168 9.03847 4.74908 9.62038 4.4766C10.2023 4.20412 10.8498 4.10303 11.4871 4.18517C12.1243 4.26731 12.725 4.52928 13.2188 4.94041C13.1914 4.95535 13.1438 4.98168 13.1121 5.00089L9.51883 7.07645C9.42867 7.1277 9.35379 7.20204 9.30189 7.29184C9.24999 7.38163 9.22295 7.48362 9.22354 7.58733L9.22105 12.6513ZM10.0461 10.8725L12 9.744L13.9539 10.8718V13.1281L12 14.2559L10.0461 13.1281V10.8725Z" fill="white"/>
</g>
<defs>
<clipPath id="clip0_427_333">
<rect width="18.5" height="18.5" fill="white" transform="translate(2.75 2.75)"/>
</clipPath>
</defs>
</svg>
