<svg width="96" height="96" fill="none" xmlns="http://www.w3.org/2000/svg"><rect width="96" height="96" rx="24" fill="#0051D2"/><g clip-path="url(#a)"><path d="M78.915 41.454a17.982 17.982 0 0 0-1.545-14.77 18.187 18.187 0 0 0-19.59-8.726 17.982 17.982 0 0 0-13.562-6.047 18.189 18.189 0 0 0-17.35 12.593 17.987 17.987 0 0 0-12.026 8.723 18.19 18.19 0 0 0 2.237 21.327 17.983 17.983 0 0 0 1.546 14.77 18.188 18.188 0 0 0 19.589 8.726 17.982 17.982 0 0 0 13.563 6.047 18.187 18.187 0 0 0 17.356-12.6 17.99 17.99 0 0 0 12.025-8.724 18.19 18.19 0 0 0-2.243-21.319ZM51.783 79.378a13.489 13.489 0 0 1-8.66-3.13c.11-.06.302-.166.427-.243l14.373-8.302a2.337 2.337 0 0 0 1.181-2.045V45.395l6.076 3.508a.216.216 0 0 1 .118.166V65.85a13.545 13.545 0 0 1-13.515 13.528ZM22.718 66.964a13.482 13.482 0 0 1-1.614-9.065c.107.064.293.178.427.255l14.373 8.302a2.34 2.34 0 0 0 2.36 0l17.549-10.132v7.016a.218.218 0 0 1-.087.186l-14.53 8.39a13.542 13.542 0 0 1-18.478-4.952Zm-3.781-31.377a13.478 13.478 0 0 1 7.041-5.931c0 .123-.007.343-.007.495v16.604a2.335 2.335 0 0 0 1.18 2.044l17.548 10.13-6.075 3.509a.218.218 0 0 1-.206.018l-14.53-8.396a13.542 13.542 0 0 1-4.951-18.473ZM68.85 47.202 51.302 37.07l6.075-3.507a.217.217 0 0 1 .205-.018l14.53 8.389a13.53 13.53 0 0 1-2.09 24.413V49.246a2.333 2.333 0 0 0-1.172-2.044Zm6.046-9.1a20.332 20.332 0 0 0-.427-.255l-14.373-8.302a2.343 2.343 0 0 0-2.36 0L40.186 39.677V32.66a.219.219 0 0 1 .087-.186l14.53-8.382a13.53 13.53 0 0 1 20.092 14.009ZM36.885 50.606l-6.077-3.508a.215.215 0 0 1-.118-.166V30.15a13.529 13.529 0 0 1 22.186-10.389c-.11.06-.3.165-.427.242l-14.373 8.302a2.335 2.335 0 0 0-1.182 2.044l-.01 20.256Zm3.3-7.115L48 38.977l7.816 4.51v9.026L48 57.024l-7.815-4.51V43.49Z" fill="#fff"/></g><defs><clipPath id="a"><path fill="#fff" d="M11 11h74v74H11z"/></clipPath></defs></svg>
